<?xml version="1.0" encoding="utf-8"?>
<!-- Generator: $$$/GeneralStr/196=Adobe Illustrator 27.6.0, SVG Export Plug-In . SVG Version: 6.00 Build 0)  -->
<svg version="1.1"
	 id="svg2652" text-rendering="geometricPrecision" image-rendering="optimizeQuality" shape-rendering="geometricPrecision"
	 xmlns="http://www.w3.org/2000/svg" xmlns:xlink="http://www.w3.org/1999/xlink" x="0px" y="0px" viewBox="0 0 1225.4 839.2"
	 style="enable-background:new 0 0 1225.4 839.2;" xml:space="preserve">
<style type="text/css">
	.st0{fill-rule:evenodd;clip-rule:evenodd;fill:#FCFB98;}
	.st1{fill-rule:evenodd;clip-rule:evenodd;fill:#B4D8EC;}
	.st2{fill-rule:evenodd;clip-rule:evenodd;fill:#FFFFFF;stroke:#000000;stroke-width:1.9973;stroke-miterlimit:3.9945;}
	.st3{fill-rule:evenodd;clip-rule:evenodd;fill:#B6CF9D;}
	.st4{fill-rule:evenodd;clip-rule:evenodd;fill:#F7A6B6;}
	.st5{fill:none;stroke:#000000;stroke-width:3.9945;stroke-miterlimit:3.9945;}
	.st6{fill:none;stroke:#000000;stroke-width:1.9973;stroke-miterlimit:3.9945;}
	.st7{fill-rule:evenodd;clip-rule:evenodd;}
	.st8{fill-rule:evenodd;clip-rule:evenodd;fill:#C71720;}
	.st9{font-family:'SimSun';}
	.st10{font-size:60px;}
	.st11{fill:none;stroke:#000000;stroke-width:1.9973;stroke-miterlimit:3.9945;stroke-dasharray:4.9932,6.9904;}
	.st12{fill:none;}
</style>
<path class="st0" d="M628.5,135.2c13-2,26-1,37.9,6c37.9-7,65.9-1,82.9,18c14-3,29,1,42.9,11c38.9,17,66.9,38.9,88.9,63.9
	c36,15,49.9,33,51.9,52.9c19,14,31,31,38.9,49.9L862.1,493.7l-342.5-42.9L416.8,290L628.5,135.2z"/>
<path class="st1" d="M637.5,133.2l-15,37.9c-63.9,5-77.9,25-57.9,56.9c12,14-10,26-16,41.9c-6,20-13,40.9-23,61.9
	c0,53.9-31,49.9-28,68.9l22,29L328.9,628.6c-94.9,15-145.8,7-159.8-20c-29-10-46.9-41.9-52.9-95.9c-15-16-16-31-11-46.9
	c-2-6-3-12,1-18c-8-26-4-39.9,1-52.9c2-20,12-36.9,27-51.9c-1-25,14-37.9,34-45.9c16-50.9,87.9-85.9,116.8-93.9
	c19-17,44.9-27,76.9-31c16-7,31-12,45.9-14c28-18,59.9-21,91.9-21c26-9,52.9-12,80.9-6L637.5,133.2z"/>
<path class="st2" d="M582.5,659.5c7,28,20,46.9,40.9,54.9c30,14,52.9,47.9,76.9,77.9c13-7,27-13,37.9-23L624.4,633.5L582.5,659.5z"
	/>
<path class="st2" d="M615.5,651.5c0,6,1,12,7,18c2,34,15,44.9,33,44.9c79.9,50.9,140.8,53.9,186.7,24c19-11,48.9-22,50.9-33
	c22-11,35-22,46.9-33c19-16,19-43.9,11-78.9C761.3,587.6,665.4,612.6,615.5,651.5z"/>
<path class="st3" d="M628.5,392.9l265.6,41.9c38.9,45.9,77.9,91.9,115.8,137.8c-28,27-65.9,31-106.9,25c-17,9-42.9,14-81.9,0
	c-15,9-30,15-44.9,20c-24,13-48.9,17-74.9,17c-24,4-44.9,7-53.9,0c-15,12-28,17-38.9,20c-17,10-31,13-44.9,16
	c-12,29-40.9,40.9-80.9,40.9c-27,12-53.9,13-81.9-12c-20-10-38.9-22-48.9-45.9c-7-8-13-15-19-23c-3-28,4-52.9,25-73.9
	c20-11,23-39.9,35-59.9c23-27,59.9-37.9,98.9-45.9c17-17,36.9-29,66.9-27C575.6,406.9,595.5,391.9,628.5,392.9z"/>
<path class="st4" d="M969.6,336.4c-30.5,25.8-47.9,41.9-72.9,71.9c-7,25-3,49.9,7,74.9c-7.8,9.7-21.4,18.1-26.8,27.4
	c-3.1,5.3-17.4,44.6-24,48.2c-6,3.2-11.6,3.7-13.4,9.8c-0.2,0.7-11.4,11-12.9,12c-9.4,6.3-13.8,6-12.2,8.5c2.3,3.6,3.2,6,6.6,7.4
	s30.3,8.8,34.3,8.3c4.1-0.5,19.7,1.3,23.6,1c3.9-0.2,9.2-2.1,12.3-2.9c4-1.1,9.7-6,11.9-5.8c16.5,1,35.6,1.3,57.9-1.5
	c34.3-8.8,19.6-4.2,50.6-21.6c10-12,18-28,26-55.9c7-11,6-29,3-45.9c6-24-5-33-20-49.9c-4-15-9-34-27-48.9
	C994.5,363.3,989.5,347.4,969.6,336.4L969.6,336.4z"/>
<path class="st5" d="M500.7,137.2c-31-2-65.9,4-95.9,21c-15,1-31,9-43.9,15c-29,2-53.9,12-75.9,29c-19,6-38.9,13-55.9,28
	c-32,19-52.9,40.9-62.9,67.9c-21,7-32,23-32,44.9c-15,13-25,30-27,51.9c-8,17-7,34-2,50.9c-1,6-5,13,0,19c-5,11-3,22,2,33
	c3,0,4,13,8,15c2,29,9,47.9,18,61.9c10,16,20,30,36,34c16,32,81.9,30,161.8,19c7,11,14,19,21,27c11,23,29,36.9,50.9,45.9
	c18,16,39.9,27,80.9,11c38.9-2,69.9-11,79.9-40.9c10-1,23-6,43.9-16c15-3,27-11,37.9-20c11,8,34,4,56.9,0c36-2,60.9-7,72.9-17
	c17-5,34-10,46.9-20c30,10,57.9,14,80.9,0c66.9,7,119.8-7,133.8-78.9c11-12,8-30,3-47.9c11-18-4-33-19-48.9c-2-21-12-36-27-48.9
	c2-14-3-26-23-36c-8-24-22-38.9-38.9-49.9c0-25-21-40.9-51.9-52.9c-24-29-53.9-49.9-88.9-64.9c-14-11-28-12-41.9-10
	c-16-20-43.9-25-81.9-18c-10-7-21-7-31-7c-23-2-42.9-3-59.9-3C547.6,125.3,523.6,129.2,500.7,137.2z"/>
<path class="st6" d="M214,249.1c-11,10-11,17-4,21 M243,236.1c48.9-34,84.9-36.9,109.8-20"/>
<path class="st6" d="M318.9,265.1c19-14,27-40.9,41.9-59.9c20-30,57.9-5,81.9-7 M194.1,296c-12,14,3,26,3,38.9"/>
<path class="st6" d="M156.1,337c17-9,13-29,29-42.9c11-14,46.9-15,59.9-34c14-21,32-28,52.9-24"/>
<path class="st6" d="M282,255.1c11-11,19-22,26-33 M349.9,257.1c11-8,16-18,15-29 M338.9,189.2c8,3,19,1,36-11"/>
<path class="st6" d="M361.8,174.2c-4,5-7,10-7,14 M405.8,158.2c2,4,5.8,7,8.8,7 M433.7,146.2c-4,5-7,9-9,13 M521.6,145.2
	c-8,1-16-1-24-8"/>
<path class="st6" d="M535.6,205.1c-10-2-18-6-14-29c1-20-15-26-42.9-24c-26,2-49.9,4-60.9,10c-9,9-19,18-31,28"/>
<path class="st6" d="M421.8,170.2c-7,7-8.7,15.8-6.7,23.7 M495.7,163.2c-10,17-24,32-34,40.9c-21,22-33.9,46.8-11.9,72.7"/>
<path class="st6" d="M437.8,250.1c-11,1-20-6-27-16c-5-10-19-10-25-29 M518.6,210.1c-48.9,2-47.9,33-71.9,43.9 M550.6,261.1
	c4.3-18.3-7-24-32-23c-12,1-24,1-33-4 M525.6,263.1c-26,9-50.9,12-76.9,14c-12-1-29,37.9-31,50.9 M113.2,404.9c7-11,14-17,23-20"/>
<path class="st6" d="M136.2,391.9c-4-17,27-22,36-32c6-5,11-24,41.9-31c17-6,31-24,50.9-41.9c8-9,24-13,41-14"/>
<path class="st6" d="M276,248.1c-9,12-16,27-6,34 M234,316.1c-2,12-2,24.8-1,35.8 M264,338c-7,11-19,24-14,38.9"/>
<path class="st6" d="M240,372.9c18,5,28,23,40.9,28 M249.5,364.2c-6-10-15.5-16.3-27.5-7.3c-17,10-33,21-49.9,31
	c-16,14-20.8,28.8-13.8,42.8"/>
<path class="st6" d="M114.2,432.8c13-15,27-22,40.9-21"/>
<path class="st6" d="M136.2,415.9c-3-3-8-4-14-5 M168.1,399.9c24-13,36-10,39.9,3c10,53.9,23.1,61.1,38.1,75"/>
<path class="st6" d="M221,379.9c-4,4-10,10-16,17 M271,348.9c18-16,42.9-33-4-48.9"/>
<path class="st6" d="M293.9,323c29-1,44.9,5,45.9,21c1,11-6,22-5,34"/>
<path class="st6" d="M414.8,466.8c25-24,39.9-45.9,23-83.9c-6-19-13-36.9-20-54.9c-31,0-57.9,5-77.9,15"/>
<path class="st6" d="M387.8,356.9c-15,14-46.9,23-44.9,47.9c1,46.9,18,56.9,29,67.9c4,3,8,15,18,27 M320.9,230.1
	c-5,19-26,38.9-7,60.9c7-5,26-5,35-7c16-10,58.9,7,75.9-5 M500.7,349.9c8-30-7-47.9-36-56.9 M517.6,426.8c-14-2-43.9-23-39.9-43.9
	c-3-25-18-34-19-43.9c-2-5,5-17-1-24"/>
<path class="st6" d="M372.8,473.8c8-13,8-25-12-38.9 M307.9,355.9c1,14,2.3,27.7,8.2,41.7"/>
<path class="st6" d="M342.9,404.9c-16-5-29-12-34-2c-5,4-19,10-15,28c-1,8-30,12-40.9,17 M274,449.8c-9,7-6,21-10,31
	c2,21,26,25,50.9,28 M161.1,446.8c6,6,17,11,40.9,14c10,2,9,9,32,16c9,1,20,2,30,4"/>
<path class="st6" d="M176.1,416.9c-6,6-19,11-20,19c-2,8-8,16-13,24c-8,15-13,27-12,36.9c1,21,24,32,36,44.9 M112.2,451.8
	c-3-2-5-4-7-6 M135.2,442.8c-7,7-14,14-19,23c-4,11-3,20-5,38.9 M115.9,466.2c0-3-1.7-3.4-3.7-5.4 M116.2,512.7c2-6,11-12,6-19
	 M135.2,575.6c2-4,1-9,3-11 M169.1,608.6c6-10,7-16,3-17 M179.1,595.6l-6-3.5"/>
<path class="st6" d="M152.1,529.7c-10,20,1,34,28,42.9 M149.1,474.8c22,12,44.9,36.9,64.9,43.9c22,8,53.1,36,72.1,23"/>
<path class="st6" d="M314.9,526.7c-15,3-33,15-33,23c1,14,47.3,23.4,65.3,19.5 M169.1,551.7c7,6,17,8,36-1c20-6,28.2,1,42.2,5"/>
<path class="st6" d="M284,553.7c-24-2-36-1-43.9,7c-14,9-28,7-33,8c-6,2-23,19-46.9,7 M219,627.6c33,2,67.9,1,103.9-4 M257,587.6
	c-8-2-12-6-12-13c-1,14-9,17-15,23c-7,5-6,13-12,20"/>
<path class="st6" d="M292.9,568.6c-20,0-38.9-1-52.9-8 M282,568.6c3,17,26,19,37.9,25"/>
<path class="st6" d="M274,583.6c2-4,8-4,12-7 M301.9,580.6c5-4,11.8-7,15.8-12 M330.9,581.6c-9-15,19-20,26-36 M328.9,486.8
	c16,13,30.6,17.4,44.6,21.4"/>
<path class="st6" d="M313.9,548.7c29,0,54.9-19,59.9-40.9c1-2,8-3,12-4 M562.6,144.2c5-5,12-10,23-13 M580.5,154.2
	c-26,0-47.9,4-58.9,23 M553.6,172.2c6,4,9.7,9.3,9.7,14.3 M840.2,444.8c4-45.9-84.9-58.9-128.8,17c-6,16-59.9,10-87.9,18
	c-25,10-49.9,24-74.9,38.9c-10,16-44.9-10-64.9-8c-64.9,7-65.9,103.9-2,119.8"/>
<path class="st6" d="M600.5,407.9c1,20-21,58.9,12,76.9 M539.6,449.8c11-4,14-21,21-30 M517.6,474.8c-5,11,1,15,12,16 M559.6,661.5
	c38.9-35,33-97.9-28-93.9c-21,2-36-3-45.9-13 M589.5,553.7c14,25,28,19,44.9,19c30-1,46.9-31,26-62.9"/>
<path class="st6" d="M610.5,572.6c-13,4-23,10-30,18 M557.6,594.6c-12,4-24,17-37.9,26c-12,18-29,25-37.9,35c-10,15-15,45.9-71.9,29
	 M558.6,671.5c-28,16-72.9,2-78.9,9 M631.5,532.7c-10-3-16-17-21-24 M456.7,491.8c22,12,40.9,9,59.9-6"/>
<path class="st6" d="M482.7,498.7c-8,12-17,17-28,16c-12-2-29,11-48.9,27c-16,13-22,27-26,41.9c-3,18-6,26-10,33"/>
<path class="st6" d="M391.8,522.7c-2,12,2,20,10,23 M378.8,667.5c-10-3-22-13-30-16 M420.8,622.6c-37.9,18-45.9,45.9-17,78.9"/>
<path class="st6" d="M397.8,583.6c-2,13,7,22,16,30c8,4,8,15,10,18c12,17,14,28,15,37.9 M675.4,438.8c14-16,38.9-3,57.9-5
	 M626.5,453.8c13.9-13.6,19.4-27.1,8.9-46.3"/>
<path class="st6" d="M650.5,445.8c-4-3-8-6-11-10 M645.5,634.6c-4-10-1-20,9-29"/>
<path class="st6" d="M626.5,628.6c3-5,11.9-5.7,17.9-8.7 M703.4,589.6c-3,19,10,28,37.9,29 M694.4,620.6c5-20-8-38.9-34-57.9
	 M695.4,608.6l9-6 M747.3,547.7c-15-3-27-9-27-25c-3-14-21-28-13-55.9 M676.4,560.7c12,12,36-3,57.9-3c53.9-2,67.9,27,41.9,58.9"/>
<path class="st6" d="M788.3,592.6c26-1,43.9-11,54.9-32 M822.2,598.6l-9-10 M862.2,586.6c16,0,30,3,40.9,12"/>
<path class="st6" d="M894.1,580.6c-5,3-11,5.3-16,7.3 M920.1,587.6c-3-17,8-25,9-35 M739.3,483.8c8,7,18,13,16,21c3,17,24,19,36,21
	c24,10,45.9,21,33,40.9 M613.5,390.9c-13-4-26-14.1-38-28"/>
<path class="st6" d="M652.4,233.1c-9,6-19,18-33,27c-14,8-29,15-36,39.9c-2,22,0,36.9-5,50.9c-4,13-6,25,0,34"/>
<path class="st6" d="M588.5,221.1c33,8,43.9,18.5,40.9,31.5 M791.3,514.7c6-10,6-19,6-29c10-16,63.9,6,70.9-38.9 M792.3,444.8
	c5,11,6,25,5,40.9 M576.6,264.1c6,9,9,18,11,26 M855.2,558.7c16-24,16-58.6,44.9-68.6 M817,538.7c2-6,5.3-12,8.2-16 M867.2,409.9
	c-7-4-10-11-7-23"/>
<path class="st6" d="M837.2,426.8c8-5,15-15,22-28 M879.1,349.9c1,25,22.2,28.7,18.2,56.6 M826.2,402.9c1-27,15-42.9,32-56.9
	c10-11,22-17,15-51.9c4-21,29-43.9,7-58.9c-26-12-47.9-36-87.9-36.9 M610.5,368.9c12-21,46.9-33,49.9-40.9c8-21,2-41.9,3-61.9
	c6-17,22-24,39.9-29c28-32,59.1-35.2,90.1-11.2"/>
<path class="st6" d="M664.4,301c-4-5-9-8-14-11 M658.1,331c9-5,18.3-7,27.3-6 M569.6,197.2c50.9,5,114.8,13,118.8,44.9 M693.4,204.1
	c-7-10-24-15-32-22"/>
<path class="st6" d="M661.4,158.2c7,12,11,23,18,35 M667.4,141.2c12,17,35.7,17.2,36,41.5"/>
<path class="st6" d="M698.4,166.2c2-3,4-5,6-8 M738.3,212.1c-12-29-37.9-28-50.9-35 M723.4,181.2c16,6,24,16,24,29 M699.4,148.2
	c20,5,36.9,13,50.9,27"/>
<path class="st6" d="M735.3,187.2c5-13,28-16,56.9-17 M783.3,236.1c9-23,59.9-13,88.9,9 M689.4,261.1c16-8,35.6-9.8,54.6,1.2"/>
<path class="st6" d="M759.3,221.1c-15,15-29,30-10,46.9c35,34,55.9,52.9,26,82.9 M846.2,243.1c9,13,9,28,3,41.9"/>
<path class="st6" d="M791.3,282c14,9,22,23,24,41.9c10,46.9-3,57.9-17,67.9 M705.4,373.9c30,7,51.9,8,56.9-8"/>
<path class="st6" d="M737.7,378.7c7,1,14.6,4.2,19.6,8.2 M796.3,407.9c11-15,0.6-23-45.3-31 M804.2,294c17-13,20-34,30-50.9
	 M873.1,295c21-2,36.9,6,49.9,23 M905.1,280c6,2,16,5,28,8 M976,370.9c-14,5-23,16-28,31c-13,10-20,25-24,40.9 M1025.9,502.7
	c7,3,11,8,11,16 M1005,408.9c-4,5-9,7-16,8c-9,8-15,17-15,28c7,17,8,30,4,40.9"/>
<path class="st6" d="M977,431.9c0-6-2-14-7-20 M1001,483.8c6-9,10-19,10-34c1-12,4-22,9-28"/>
<path class="st6" d="M1011,458.8c10,1,13,7,12,15c7,6,10,15,13,23 M741.3,278c-9,18-25,35-27,53.9c-16,35-70.9,32-83.9,58.9"/>
<path class="st6" d="M835.2,602.6c-37.9,14-80.9,30-113.9,60.9 M727.3,651.5l36-27 M852.2,606.6c-34,11-69.9,25-103.9,42.9
	 M875.1,607.6c-51.9,17-110.1,40.9-161.1,64.9 M953,603.6c-43.9,14-222.7,76.9-241.7,76.9 M708.8,676.5
	c74.9-31,156.3-54.9,232.2-76.9 M955,624.6c-45.9,17-194.9,55.1-230.8,59.1c78.9-26,152.9-46.2,229.8-70.1"/>
<path class="st6" d="M733.3,632.6c-12,51.9-39.9,55.9-71.9,46.9c-13-10-26-10-38.9-10"/>
<path class="st6" d="M709.2,676.4c9-15,12.2-26.9,14.2-41.9 M699.4,681.5c9-12,14-28,16-46.9 M687.4,683.5c14-12,19-28,18-48.9
	 M680.4,682.5c10-13,17-28,18-45.9 M671.4,682.5c10-13,18-28,22-44.9 M664.4,680.5l23-41.9 M658.4,678.5c6-13,11.3-30,19.3-40
	 M654.4,674.5c5-11,7-24,11-34 M649.5,673.5c1-12,4-23,7-34 M643.5,671.5l4-35 M639.5,670.5c-2-9-3-19.8-3-28.8 M631.5,669.5
	c-4-7-4-15.5-3-22.5 M625.5,669.5l-4-18 M652.4,673.5c-2,11,3,20,12,28 M642.5,671.5c-2,14,3,28.5,15,37.5 M628.5,670.5
	c3,19,12,34,26,42.9"/>
<path class="st6" d="M654.4,713.4c9-10,17-22,26-30 M933.1,631.6c-28,29-64.9,52.9-110.8,71.9c-38.9-3-78.9-16.2-117.9-24.2"/>
<path class="st6" d="M740,681.2c32,5,64.2,10.2,96.2,16.2 M850.2,690.5c-29-5-58.5-10.2-86.4-14.2 M790.2,670.2
	c25,4,47,7.3,70.9,14.2 M810.2,665.5c22,0,42.9,5,61.9,13 M838.2,658.5c15,2,31,6,45.9,13"/>
<path class="st6" d="M896.1,663.5c-9-1-23.3,0-33.3,0 M907.1,654.5c-20,4-37.9,4-52.9,0 M868.2,650.5c9,2,28,0,46.9-3
	c14-4,27.7-9.5,40.7-15.5 M657.7,709.9c34,24,80.7,40.9,139.6,45.9"/>
<path class="st6" d="M661.4,704.5c40.9,31,95,41.7,157,45.7"/>
<path class="st6" d="M665.4,701.5c65.9,38.9,123.7,46.4,175.6,37.4"/>
<path class="st6" d="M668.4,696.5c64.9,36,127.4,44.4,184.3,36.4"/>
<path class="st6" d="M672.4,691.5c69.9,34,130.7,42.9,190.7,36"/>
<path class="st6" d="M677.4,687.5c62.9,31,128.8,40.9,197.7,34"/>
<path class="st6" d="M688.4,683.5c66.9,32,132.6,33,197.5,31"/>
<path class="st6" d="M822.2,703.5c7,9,32,9,70.9,3"/>
<path class="st6" d="M834.2,698.5c6,9,35.3,5.7,70.2,0.7 M852.2,690.5c13,4,45.9-4,82.9-14"/>
<path class="st6" d="M841.2,695.5c9,6,42.9,1,79.9-7 M950.3,659c-40.9,18-73.2,28.5-89.2,26.5 M872.1,678.5c22-1,52-13.8,80.9-25.7
	 M886.1,670.5c22-5,44.9-14,67.9-24 M955,638.5c-18,9-36,16-54.9,22 M698.4,681.5c44.9,16,92.9,25.4,139.8,28.4"/>
<g>
	<path class="st7" d="M871.1,333c28-9,74.9,37.9,76.9,67.9C954,355.9,894.1,317,871.1,333z"/>
	<path class="st8" d="M555.6,420.8c-29-1-49.9,9-65.9,28c-51.9,9-88.9,26-102.9,52.9c-10,8-5,34-28,51.9c-21,21-34,45.9-30,73.9
		c4,3,7,8,10,11c-10-37.9,5-63.9,22-81.9c15-8,23-28,30-51.9c13-27,50.9-42.9,103.9-52.9c19-22,38.9-29,61.9-24c13-16,36-35,68.9-32
		c4,7,10,13,14,18c-4-8-7-17-9-26C593.5,387.9,575.6,403.9,555.6,420.8z"/>
	<path class="st7" d="M620.5,167.2c-47.9,3-74.9,21-65.9,53.9c11,13,13,22,6,28c-14,8-19,29-24,51.9c-10,13-16,34-16,55.9
		c-1,19-29,30-25,45.9h4c0-7,4-14,11-20c9-5,13-17,16-33c-1-14,3-28,14-42.9c5-19,7-46.9,27-55.9c12-5,5-18-6-34
		c-13-32,22-39.9,58.9-44.9c15-4,11-28,21-36c-3-1-7-1-10-1C622.5,141.2,626.5,156.2,620.5,167.2z"/>
	<text transform="matrix(1 0 0 1 162.2102 696.637)" class="st9 st10">外侧裂</text>
</g>
<path class="st6" d="M594.5,241.1c-9-3-17-2-24,4"/>
<path class="st7" d="M967,332c-7,8-15,17-23,25c7,0,16-5,28-20L967,332z M945,357.9c-17,14-34,29-45.9,43.9c-9,12-10,29-7,47.9
	c2,14,4,28,7,40.9c4,0,7,0,11,1c16,16,55.9,13,67.9,19c7,10,13,17,17,15c7,7,12,15,15,23c-3-10,3-10-18-34c-9-9-30-14-62.9-19
	c-23-8-28-22-30-39.9c-4-17-6-33,0-49.9C912.1,389.9,928.1,373.9,945,357.9z"/>
<path class="st11" d="M631.5,392.9l262.6,40.9"/>
<path class="st7" d="M902.1,487.8c3,23,11,43.9,28,59.9c34,1,54.9,20,84.9,21l-7,7c-14,1-27-11-39.9-13c-11-4-33-5-42.9-10
	C910.1,531.7,901.1,509.7,902.1,487.8z"/>
<path class="st11" d="M496.7,399.9l23,30"/>
<rect x="1072.5" y="469" class="st12" width="194.4" height="141.2"/>
<text transform="matrix(1 0 0 1 1072.5049 520.533)" class="st9 st10">枕叶</text>
<rect x="374.5" y="741.4" class="st12" width="194.4" height="141.2"/>
<text transform="matrix(1 0 0 1 374.4488 792.9325)" class="st9 st10">颞叶</text>
<rect x="50.1" y="196.8" class="st12" width="194.4" height="141.2"/>
<text transform="matrix(1 0 0 1 50.0661 248.3489)" class="st9 st10">额叶</text>
<text transform="matrix(1 0 0 1 885.1145 77.1785)" class="st9 st10">顶叶</text>
</svg>
